<?xml version="1.0" encoding="iso-8859-1"?>
<!-- Uploaded to: SVG Repo, www.svgrepo.com, Generator: SVG Repo Mixer Tools -->
<svg fill="#000000" height="800px" width="800px" version="1.1" id="Layer_1" xmlns="http://www.w3.org/2000/svg" xmlns:xlink="http://www.w3.org/1999/xlink" 
	 viewBox="0 0 512 512" xml:space="preserve">
<g>
	<g>
		<path d="M392.818,273.637H196.142c-4.428,0-8.017,3.588-8.017,8.017c0,4.428,3.588,8.017,8.017,8.017h26.188v60.392
			c0,6.271,7.229,10.16,12.463,6.67L256,342.594l21.207,14.138c5.238,3.493,12.463-0.403,12.463-6.67V289.67h95.132v206.296H127.198
			V289.67h34.739c4.428,0,8.017-3.588,8.017-8.017c0-4.428-3.588-8.017-8.017-8.017h-42.756c-4.428,0-8.017,3.588-8.017,8.017
			v222.33c0,4.428,3.588,8.017,8.017,8.017h273.637c4.428,0,8.017-3.588,8.017-8.017v-222.33
			C400.835,277.225,397.247,273.637,392.818,273.637z M273.637,335.083l-13.19-8.794c-2.664-1.775-6.229-1.776-8.893,0l-13.19,8.794
			V289.67h35.273V335.083z"/>
	</g>
</g>
<g>
	<g>
		<path d="M210.363,455.558l-25.653-25.653c-3.132-3.129-8.207-3.129-11.339,0l-25.653,25.653c-3.131,3.132-3.131,8.207,0,11.338
			c3.132,3.13,8.207,3.13,11.338,0l11.968-11.967v23.401c0,4.428,3.588,8.017,8.017,8.017s8.017-3.588,8.017-8.017v-23.401
			l11.967,11.968c3.261,3.259,8.766,3.042,11.764-0.461C213.474,463.298,213.281,458.477,210.363,455.558z"/>
	</g>
</g>
<g>
	<g>
		<path d="M364.283,455.558l-25.653-25.653c-3.132-3.129-8.207-3.129-11.339,0l-25.653,25.653c-3.131,3.132-3.131,8.207,0,11.338
			c3.132,3.13,8.207,3.13,11.338,0l11.968-11.967v23.401c0,4.428,3.588,8.017,8.017,8.017c4.428,0,8.017-3.588,8.017-8.017v-23.401
			l11.967,11.968c3.261,3.259,8.767,3.042,11.764-0.461C367.395,463.298,367.201,458.477,364.283,455.558z"/>
	</g>
</g>
<g>
	<g>
		<path d="M324.409,367.699H187.591c-4.428,0-8.017,3.588-8.017,8.017v34.205c0,4.428,3.588,8.017,8.017,8.017h136.818
			c4.428,0,8.017-3.588,8.017-8.017v-34.205C332.426,371.288,328.838,367.699,324.409,367.699z M316.393,401.904H195.608v-18.171
			h120.785V401.904z"/>
	</g>
</g>
<g>
	<g>
		<path d="M324.409,307.841c-4.428,0-8.017,3.588-8.017,8.017v17.102c0,4.428,3.588,8.017,8.017,8.017
			c4.428,0,8.017-3.588,8.017-8.017v-17.102C332.426,311.43,328.838,307.841,324.409,307.841z"/>
	</g>
</g>
<g>
	<g>
		<path d="M350.063,307.841c-4.428,0-8.017,3.588-8.017,8.017v17.102c0,4.428,3.588,8.017,8.017,8.017
			c4.428,0,8.017-3.588,8.017-8.017v-17.102C358.079,311.43,354.491,307.841,350.063,307.841z"/>
	</g>
</g>
<g>
	<g>
		<path d="M187.591,307.841c-4.428,0-8.017,3.588-8.017,8.017v17.102c0,4.428,3.588,8.017,8.017,8.017s8.017-3.588,8.017-8.017
			v-17.102C195.608,311.43,192.019,307.841,187.591,307.841z"/>
	</g>
</g>
<g>
	<g>
		<path d="M161.937,307.841c-4.428,0-8.017,3.588-8.017,8.017v17.102c0,4.428,3.588,8.017,8.017,8.017
			c4.428,0,8.017-3.588,8.017-8.017v-17.102C169.954,311.43,166.366,307.841,161.937,307.841z"/>
	</g>
</g>
<g>
	<g>
		<path d="M495.432,265.086c-9.56,0-17.637-11.993-17.637-26.188c0-4.428-3.588-8.017-8.017-8.017c-4.428,0-8.017,3.588-8.017,8.017
			c0,14.195-8.077,26.188-17.637,26.188c-4.428,0-8.017,3.588-8.017,8.017c0,4.428,3.588,8.017,8.017,8.017
			c9.56,0,17.637,11.993,17.637,26.188c0,4.428,3.588,8.017,8.017,8.017c4.428,0,8.017-3.588,8.017-8.017
			c0-14.195,8.077-26.188,17.637-26.188c4.428,0,8.017-3.588,8.017-8.017C503.449,268.674,499.861,265.086,495.432,265.086z
			 M469.779,279.989c-1.751-2.58-3.744-4.896-5.934-6.887c2.19-1.991,4.184-4.307,5.934-6.887c1.751,2.58,3.744,4.896,5.935,6.887
			C473.523,275.094,471.53,277.409,469.779,279.989z"/>
	</g>
</g>
<g>
	<g>
		<path d="M367.165,34.205c-9.56,0-17.637-11.993-17.637-26.188c0-4.428-3.588-8.017-8.017-8.017c-4.428,0-8.017,3.588-8.017,8.017
			c0,14.195-8.077,26.188-17.637,26.188c-4.428,0-8.017,3.588-8.017,8.017c0,4.428,3.588,8.017,8.017,8.017
			c9.56,0,17.637,11.993,17.637,26.188c0,4.428,3.588,8.017,8.017,8.017c4.428,0,8.017-3.588,8.017-8.017
			c0-14.195,8.077-26.188,17.637-26.188c4.428,0,8.017-3.588,8.017-8.017C375.182,37.793,371.593,34.205,367.165,34.205z
			 M341.511,49.108c-1.751-2.58-3.744-4.896-5.935-6.887c2.19-1.991,4.184-4.307,5.935-6.887c1.751,2.58,3.744,4.896,5.935,6.887
			C345.256,44.213,343.262,46.528,341.511,49.108z"/>
	</g>
</g>
<g>
	<g>
		<path d="M196.142,34.205c-9.56,0-17.637-11.993-17.637-26.188c0-4.428-3.588-8.017-8.017-8.017s-8.017,3.588-8.017,8.017
			c0,14.195-8.077,26.188-17.637,26.188c-4.428,0-8.017,3.588-8.017,8.017c0,4.428,3.588,8.017,8.017,8.017
			c9.56,0,17.637,11.993,17.637,26.188c0,4.428,3.588,8.017,8.017,8.017s8.017-3.588,8.017-8.017
			c0-14.195,8.077-26.188,17.637-26.188c4.428,0,8.017-3.588,8.017-8.017C204.159,37.793,200.57,34.205,196.142,34.205z
			 M170.489,49.108c-1.751-2.58-3.744-4.896-5.935-6.887c2.19-1.991,4.184-4.307,5.935-6.887c1.751,2.58,3.744,4.896,5.935,6.887
			C174.233,44.213,172.239,46.528,170.489,49.108z"/>
	</g>
</g>
<g>
	<g>
		<path d="M67.875,265.086c-9.56,0-17.637-11.993-17.637-26.188c0-4.428-3.588-8.017-8.017-8.017c-4.428,0-8.017,3.588-8.017,8.017
			c0,14.195-8.077,26.188-17.637,26.188c-4.428,0-8.017,3.588-8.017,8.017c0,4.428,3.588,8.017,8.017,8.017
			c9.56,0,17.637,11.993,17.637,26.188c0,4.428,3.588,8.017,8.017,8.017c4.428,0,8.017-3.588,8.017-8.017
			c0-14.195,8.077-26.188,17.637-26.188c4.428,0,8.017-3.588,8.017-8.017C75.891,268.674,72.303,265.086,67.875,265.086z
			 M42.221,279.989c-1.751-2.58-3.744-4.896-5.935-6.887c2.19-1.991,4.184-4.307,5.935-6.887c1.751,2.58,3.744,4.896,5.935,6.887
			C45.966,275.094,43.972,277.409,42.221,279.989z"/>
	</g>
</g>
<g>
	<g>
		<path d="M435.574,42.756c-13.851,0-25.119,11.268-25.119,25.119c0,8.305,4.054,15.677,10.284,20.253L317.53,159.58l-52.962-68.093
			c9.645-3.511,16.551-12.77,16.551-23.613c0-13.851-11.268-25.119-25.119-25.119s-25.119,11.268-25.119,25.119
			c0,10.843,6.906,20.102,16.551,23.613L194.47,159.58L91.261,88.128c6.23-4.576,10.284-11.948,10.284-20.253
			c0-13.851-11.268-25.119-25.119-25.119S51.307,54.024,51.307,67.875s11.268,25.119,25.119,25.119
			c0.191-0.003,0.383-0.007,0.575-0.015c-0.067,0.978,0.026,1.969,0.314,2.907l33.85,110.012V256c0,4.428,3.588,8.017,8.017,8.017
			h273.637c4.428,0,8.017-3.588,8.017-8.017v-50.102l33.85-110.012c0.289-0.938,0.383-1.929,0.314-2.907
			c0.191,0.008,0.383,0.012,0.575,0.015c13.851,0,25.119-11.268,25.119-25.119S449.425,42.756,435.574,42.756z M76.426,76.96
			c-5.01,0-9.086-4.076-9.086-9.086c0-5.01,4.076-9.086,9.086-9.086s9.086,4.076,9.086,9.086
			C85.511,72.885,81.436,76.96,76.426,76.96z M246.914,67.875c0-5.01,4.076-9.086,9.086-9.086s9.086,4.076,9.086,9.086
			c0,5.01-4.076,9.086-9.086,9.086S246.914,72.885,246.914,67.875z M384.802,247.983H127.198V212.71h257.603V247.983z
			 M386.898,196.676H125.102l-25.656-83.38l92.131,63.783c3.496,2.422,8.278,1.69,10.891-1.67l53.53-68.825l53.53,68.825
			c2.612,3.359,7.392,4.092,10.891,1.67l92.131-63.783L386.898,196.676z M435.574,76.96c-5.01,0-9.086-4.076-9.086-9.086
			s4.076-9.086,9.086-9.086c5.01,0,9.086,4.076,9.086,9.086C444.66,72.885,440.584,76.96,435.574,76.96z"/>
	</g>
</g>
</svg>